<svg width="19" height="22" viewBox="0 0 19 22" fill="none" xmlns="http://www.w3.org/2000/svg">
<path id="Union" d="M15.5471 10.7946V2.81227H18.5995V10.7946C18.5995 10.8037 18.5994 10.8128 18.5994 10.8219C18.603 10.6822 18.6048 10.5432 18.6048 10.4049V20.7734H15.5472V19.5333C16.7629 18.4195 17.6508 16.4822 18.1474 14.3495C17.007 18.5046 13.7818 21.0373 9.29884 21.0373C4.88904 21.0373 1.69737 18.5867 0.509392 14.5517C1.01417 16.6042 1.88399 18.4548 3.06119 19.5333V20.7734H0.00532472V11.2036C0.00178084 11.0684 0 10.932 0 10.7946V5.68562H3.05764V10.7946C3.05764 13.3278 3.78836 15.2765 5.11499 16.5165V-0.000854492H8.26662V17.9408C8.60851 17.99 8.95341 18.0155 9.29884 18.0169C9.64486 18.0155 9.99036 17.9901 10.3328 17.9408V8.62452H13.4898V16.5165C14.8164 15.28 15.5471 13.3225 15.5471 10.7946Z" fill="#FF6849"/>
</svg>
