<svg width="93" height="24" viewBox="0 0 93 24" fill="none" xmlns="http://www.w3.org/2000/svg">
<g id="Union">
<path d="M79.0779 7.68723H75.1938L69.7028 13.6997H67.8121V0.962646H64.9124V22.7662H67.8121V16.5695H69.6443L75.1885 22.7662H79.0353L72.255 15.1434L79.0779 7.68723Z" fill="#252532"/>
<path d="M43.7734 20.0292C43.5146 20.1309 43.2392 20.1838 42.9611 20.1851C42.6596 20.1851 42.1542 20.1851 42.1542 19.0371V0.967981H39.2526V19.0956C39.2526 21.5279 40.6236 23.0372 42.8281 23.0372C43.5072 23.0424 44.1787 22.8953 44.7932 22.6067L45.4441 22.2807L45.0451 19.3968L43.7734 20.0292Z" fill="#252532"/>
<path d="M32.6823 3.77651C33.01 3.45917 33.4488 3.28219 33.9052 3.2833C34.3581 3.28551 34.7921 3.46438 35.1149 3.78175C35.4376 4.09913 35.6234 4.52989 35.6326 4.98215C35.6355 5.44308 35.4552 5.88633 35.1314 6.21474C34.8076 6.54316 34.3666 6.72993 33.9052 6.73414C33.4403 6.73321 32.9946 6.54833 32.6659 6.21997C32.3371 5.89161 32.152 5.44653 32.1511 4.98215C32.1641 4.52647 32.3547 4.09385 32.6823 3.77651Z" fill="#252532"/>
<path d="M19.3707 8.71463C20.4626 7.87013 21.8645 7.42373 23.4755 7.42321C26.3729 7.42431 29.7408 9.36099 29.7408 14.8174V22.7661H26.8392V14.8971C26.8392 11.9547 25.5498 10.2664 23.2921 10.2664C20.8002 10.2664 19.3707 12.0308 19.3707 15.1079V22.7661H16.4709V7.68716H19.3707V8.71463Z" fill="#252532"/>
<path d="M6.74112 20.1851C9.23299 20.1851 10.6625 18.4207 10.6625 15.3454L10.6678 7.68726H13.5694V22.7662H10.6678V21.7387C9.56642 22.5837 8.17417 23.0301 6.56199 23.0301C3.66398 23.0301 0.294189 21.0939 0.294189 15.6359V7.68726H3.19398V15.5562C3.19398 18.4987 4.48337 20.1851 6.74112 20.1851Z" fill="#252532"/>
<path d="M35.3419 7.68726H32.4421V22.7662H35.3419V7.68726Z" fill="#252532"/>
<path fill-rule="evenodd" clip-rule="evenodd" d="M53.3274 7.42327C55.066 7.40751 56.7543 8.0054 58.0947 9.1115V7.68722H60.9945V22.7661H58.0947V21.3135C56.7572 22.4284 55.0694 23.0374 53.3274 23.0336C49.1169 23.0336 45.8198 19.6217 45.8198 15.2391C45.8198 10.8564 49.1169 7.42327 53.3274 7.42327ZM48.7196 15.2391C48.7196 18.0132 50.7787 20.1851 53.4072 20.1851C56.0356 20.1851 58.0947 18.0132 58.0947 15.2391C58.0947 12.4047 56.0799 10.2665 53.4072 10.2665C50.7787 10.2665 48.7196 12.4649 48.7196 15.2391Z" fill="#252532"/>
<path fill-rule="evenodd" clip-rule="evenodd" d="M78.0602 15.2391C78.0602 10.7891 81.3342 7.42327 85.6741 7.42327V7.41619C89.7817 7.41619 92.999 10.7218 92.999 14.9433C93.0058 15.2308 92.9815 15.5183 92.9263 15.8007L92.7631 16.6155H81.1338C81.4061 17.6444 82.0129 18.5537 82.8588 19.2008C83.7046 19.8478 84.7417 20.1959 85.8072 20.1904C86.5904 20.2055 87.3668 20.0423 88.0775 19.7133C88.7882 19.3843 89.4147 18.898 89.9094 18.2914L90.6188 17.4322L92.6407 19.4517L92.0537 20.1603C90.5178 22.0133 88.3008 23.0337 85.8072 23.0337C81.4619 23.0337 78.0602 19.6076 78.0602 15.2391ZM85.6741 10.2506C83.482 10.2506 81.7084 11.6908 81.1373 13.7936H89.9875C89.4962 11.7121 87.7847 10.2506 85.6741 10.2506Z" fill="#252532"/>
</g>
</svg>
