<svg width="48" height="48" viewBox="0 0 48 48" fill="none" xmlns="http://www.w3.org/2000/svg">
<path d="M0 4C0 1.79086 1.79086 0 4 0H44C46.2091 0 48 1.79086 48 4V44C48 46.2091 46.2091 48 44 48H4C1.79086 48 0 46.2091 0 44V4Z" stroke="#383838"/>
<path d="M12.6843 40.1833L4.48118 25.8166C4.16579 25.2642 3.99976 24.6377 3.99976 23.9999C3.99976 23.3621 4.16579 22.7355 4.48118 22.1832L12.6843 7.81674C12.9997 7.26431 13.4534 6.80557 13.9998 6.48665C14.5461 6.16772 15.1659 5.99984 15.7968 5.99988H32.203C32.8338 5.99989 33.4535 6.1678 33.9998 6.48673C34.5461 6.80565 34.9997 7.26435 35.3151 7.81674L43.5182 22.1832C43.8337 22.7356 43.9998 23.3622 43.9998 24C43.9998 24.6379 43.8337 25.2645 43.5182 25.8169L35.3151 40.1833C34.9997 40.7357 34.546 41.1943 33.9997 41.5132C33.4534 41.832 32.8337 41.9999 32.203 41.9999H15.7968C15.1659 42 14.5461 41.8321 13.9998 41.5131C13.4534 41.1942 12.9997 40.7358 12.6843 40.1833Z" fill="url(#paint0_linear_1172_1377)"/>
<path opacity="0.07" d="M44.1957 32.0923L30.0793 17.9753L24 16.3484L18.5395 18.3779L16.4307 23.8721L18.1263 29.9894L33.0961 44.9592L36.2727 44.818L44.1957 32.0923Z" fill="black"/>
<path d="M24 15.39C19.3158 15.39 15.5183 19.1875 15.5183 23.8721C15.5183 28.5563 19.3158 32.3538 24 32.3538C28.6843 32.3538 32.4814 28.5563 32.4814 23.8721C32.4814 19.1875 28.6839 15.39 24 15.39ZM24 30.3075C20.4457 30.3075 17.5642 27.4261 17.5642 23.8717C17.5642 20.3174 20.4457 17.4363 24 17.4363C27.5544 17.4363 30.4358 20.3178 30.4358 23.8721C30.4358 27.4264 27.5544 30.3075 24 30.3075Z" fill="white"/>
<path d="M19.9741 23.5444V26.1809C20.3642 26.8506 20.9146 27.4129 21.5758 27.8173V23.5444H19.9741ZM23.15 21.3219V28.4199C23.4224 28.47 23.701 28.5004 23.9874 28.5004C24.2484 28.5004 24.5029 28.473 24.7527 28.4313V21.3219H23.15ZM26.4743 24.64V27.7709C27.146 27.3437 27.6975 26.7522 28.0766 26.0522V24.6404L26.4743 24.64ZM30.1036 29.0964L29.2249 29.9759C29.1504 30.0504 29.1086 30.1515 29.1086 30.2569C29.1086 30.3622 29.1504 30.4633 29.2249 30.5379L32.5579 33.8699C32.6325 33.9443 32.7336 33.9861 32.839 33.9861C32.9443 33.9861 33.0454 33.9443 33.12 33.8699L33.9987 32.9915C34.0726 32.9168 34.1141 32.8159 34.1141 32.7107C34.1141 32.6055 34.0726 32.5046 33.9987 32.4299L30.6652 29.0964C30.5906 29.0223 30.4896 28.9807 30.3844 28.9807C30.2792 28.9807 30.1782 29.0223 30.1036 29.0964Z" fill="white"/>
<defs>
<linearGradient id="paint0_linear_1172_1377" x1="23.9998" y1="5.99988" x2="23.9998" y2="41.9999" gradientUnits="userSpaceOnUse">
<stop stop-color="#4387FD"/>
<stop offset="1" stop-color="#4683EA"/>
</linearGradient>
</defs>
</svg>
